<?xml version="1.0" encoding="UTF-8" standalone="no"?>
<!-- Created with Inkscape (http://www.inkscape.org/) -->
<svg
   xmlns:dc="http://purl.org/dc/elements/1.1/"
   xmlns:cc="http://web.resource.org/cc/"
   xmlns:rdf="http://www.w3.org/1999/02/22-rdf-syntax-ns#"
   xmlns:svg="http://www.w3.org/2000/svg"
   xmlns="http://www.w3.org/2000/svg"
   xmlns:xlink="http://www.w3.org/1999/xlink"
   xmlns:sodipodi="http://sodipodi.sourceforge.net/DTD/sodipodi-0.dtd"
   xmlns:inkscape="http://www.inkscape.org/namespaces/inkscape"
   width="1600px"
   height="1200px"
   id="svg2863"
   sodipodi:version="0.32"
   inkscape:version="0.45"
   inkscape:export-filename="/home/bernie/software/sidux-graphics/svg/sidux-plantlife/sidux-plantlife_1600x1200.png"
   inkscape:export-xdpi="90"
   inkscape:export-ydpi="90"
   sodipodi:docbase="/home/bernie/software/sidux-graphics/svg/sidux-plantlife"
   sodipodi:docname="sidux-vista.svg"
   inkscape:output_extension="org.inkscape.output.svg.inkscape"
   sodipodi:modified="true">
  <defs
     id="defs2865">
    <filter
       inkscape:collect="always"
       id="filter6192">
      <feGaussianBlur
         inkscape:collect="always"
         stdDeviation="0.86145189"
         id="feGaussianBlur6194" />
    </filter>
    <filter
       inkscape:collect="always"
       id="filter6712">
      <feGaussianBlur
         inkscape:collect="always"
         stdDeviation="0.93998754"
         id="feGaussianBlur6714" />
    </filter>
    <filter
       inkscape:collect="always"
       id="filter6664">
      <feGaussianBlur
         inkscape:collect="always"
         stdDeviation="0.21047761"
         id="feGaussianBlur6666" />
    </filter>
    <filter
       id="filter3478"
       inkscape:collect="always">
      <feGaussianBlur
         id="feGaussianBlur3480"
         stdDeviation="7.2568287"
         inkscape:collect="always" />
    </filter>
    <filter
       id="filter3193"
       inkscape:collect="always">
      <feGaussianBlur
         id="feGaussianBlur3195"
         stdDeviation="6.8387626"
         inkscape:collect="always" />
    </filter>
    <linearGradient
       id="linearGradient5725">
      <stop
         id="stop5727"
         offset="0"
         style="stop-color:#ffffff;stop-opacity:0.45882353;" />
      <stop
         style="stop-color:#ffffff;stop-opacity:1;"
         offset="0.25"
         id="stop5739" />
      <stop
         style="stop-color:#ffffff;stop-opacity:0.49803922;"
         offset="0.5"
         id="stop5737" />
      <stop
         id="stop5729"
         offset="1"
         style="stop-color:#ffffff;stop-opacity:0;" />
    </linearGradient>
    <linearGradient
       inkscape:collect="always"
       xlink:href="#linearGradient5725"
       id="linearGradient3584"
       gradientUnits="userSpaceOnUse"
       gradientTransform="translate(22.549654,61.678252)"
       x1="357.2677"
       y1="408.5979"
       x2="357.2677"
       y2="266.57019" />
    <linearGradient
       inkscape:collect="always"
       xlink:href="#linearGradient5725"
       id="linearGradient3586"
       gradientUnits="userSpaceOnUse"
       x1="148.18481"
       y1="249.54306"
       x2="147.85715"
       y2="200.41112" />
    <linearGradient
       inkscape:collect="always"
       xlink:href="#linearGradient5725"
       id="linearGradient3588"
       gradientUnits="userSpaceOnUse"
       x1="340"
       y1="646.7879"
       x2="340"
       y2="596.85132" />
    <linearGradient
       inkscape:collect="always"
       xlink:href="#linearGradient5725"
       id="linearGradient3590"
       gradientUnits="userSpaceOnUse"
       x1="340"
       y1="646.7879"
       x2="340"
       y2="596.85132" />
    <linearGradient
       inkscape:collect="always"
       xlink:href="#linearGradient5725"
       id="linearGradient3592"
       gradientUnits="userSpaceOnUse"
       x1="340"
       y1="646.7879"
       x2="340"
       y2="596.85132" />
    <linearGradient
       inkscape:collect="always"
       xlink:href="#linearGradient5725"
       id="linearGradient3594"
       gradientUnits="userSpaceOnUse"
       x1="340"
       y1="646.7879"
       x2="340"
       y2="596.85132" />
    <linearGradient
       inkscape:collect="always"
       xlink:href="#linearGradient5725"
       id="linearGradient3596"
       gradientUnits="userSpaceOnUse"
       x1="340"
       y1="646.7879"
       x2="340"
       y2="596.85132" />
    <linearGradient
       inkscape:collect="always"
       xlink:href="#linearGradient5725"
       id="linearGradient3598"
       gradientUnits="userSpaceOnUse"
       x1="340"
       y1="646.7879"
       x2="340"
       y2="596.85132" />
    <linearGradient
       inkscape:collect="always"
       xlink:href="#linearGradient5725"
       id="linearGradient3600"
       gradientUnits="userSpaceOnUse"
       x1="340"
       y1="646.7879"
       x2="340"
       y2="596.85132" />
    <linearGradient
       inkscape:collect="always"
       xlink:href="#linearGradient5725"
       id="linearGradient3602"
       gradientUnits="userSpaceOnUse"
       x1="340"
       y1="646.7879"
       x2="340"
       y2="596.85132" />
    <linearGradient
       inkscape:collect="always"
       xlink:href="#linearGradient5725"
       id="linearGradient3604"
       gradientUnits="userSpaceOnUse"
       x1="340"
       y1="646.7879"
       x2="340"
       y2="596.85132" />
    <linearGradient
       inkscape:collect="always"
       xlink:href="#linearGradient5725"
       id="linearGradient3606"
       gradientUnits="userSpaceOnUse"
       x1="340"
       y1="646.7879"
       x2="340"
       y2="596.85132" />
  </defs>
  <sodipodi:namedview
     id="base"
     pagecolor="#ffffff"
     bordercolor="#666666"
     borderopacity="1.0"
     inkscape:pageopacity="0.0"
     inkscape:pageshadow="2"
     inkscape:zoom="0.42426407"
     inkscape:cx="800"
     inkscape:cy="718.93696"
     inkscape:current-layer="layer1"
     inkscape:document-units="px"
     inkscape:window-width="1392"
     inkscape:window-height="987"
     inkscape:window-x="0"
     inkscape:window-y="32" />
  <metadata
     id="metadata2868">
    <rdf:RDF>
      <cc:Work
         rdf:about="">
        <dc:format>image/svg+xml</dc:format>
        <dc:type
           rdf:resource="http://purl.org/dc/dcmitype/StillImage" />
      </cc:Work>
    </rdf:RDF>
  </metadata>
  <g
     id="layer1"
     inkscape:label="Layer 1"
     inkscape:groupmode="layer"
     style="display:inline">
    <image
       y="-83.333344"
       x="-164.00003"
       id="image2986"
       height="1360"
       width="1988"
       sodipodi:absref="./plantlife.jpg"
       xlink:href="./plantlife.jpg" />
  </g>
  <g
     inkscape:groupmode="layer"
     id="layer8"
     inkscape:label="sidux">
    <g
       id="g3479"
       transform="translate(425.47269,189.2361)">
      <g
         style="display:inline"
         inkscape:label="bg_detail"
         id="layer3" />
      <g
         style="display:inline"
         id="layer2">
        <rect
           style="fill:none;fill-opacity:1;fill-rule:evenodd;stroke:#000000;stroke-width:4.69999981;stroke-linecap:butt;stroke-linejoin:miter;stroke-miterlimit:4;stroke-dasharray:none;stroke-opacity:1;filter:url(#filter3193)"
           id="rect3134"
           width="569.19543"
           height="498.94208"
           x="89.376022"
           y="160.91562"
           ry="24.285715" />
      </g>
      <g
         style="display:inline"
         id="g3486"
         inkscape:label="hard_edge">
        <rect
           ry="24.285715"
           y="165.21933"
           x="94.285713"
           height="497.14285"
           width="567.14288"
           id="rect2160"
           style="fill:none;fill-opacity:1;fill-rule:evenodd;stroke:#000000;stroke-width:1.20000005;stroke-linecap:butt;stroke-linejoin:miter;stroke-miterlimit:4;stroke-dasharray:none;stroke-opacity:1" />
      </g>
      <g
         style="opacity:0.46296297;display:inline"
         inkscape:label="frost"
         id="layer4">
        <rect
           style="fill:#fff5c5;fill-opacity:0.61621624;fill-rule:evenodd;stroke:none;stroke-width:1.20000005;stroke-linecap:butt;stroke-linejoin:miter;stroke-miterlimit:4;stroke-dasharray:none;stroke-opacity:1;display:inline"
           id="rect3287"
           width="567.14288"
           height="497.14285"
           x="94.285713"
           y="165.21933"
           ry="24.285715" />
      </g>
      <g
         style="opacity:0.46296297;display:inline"
         inkscape:label="edge_light"
         id="layer5">
        <path
           transform="matrix(0.9688996,0,0,0.2164783,14.558663,515.97937)"
           id="rect3290"
           d="M 100.5625,636.65625 C 102.2922,648.03926 112.08774,656.71873 123.96875,656.71875 L 629.25,656.71875 C 639.98176,656.71875 649.01834,649.63222 651.9375,639.875 C 588.51516,643.55387 408.84177,650.54996 100.5625,636.65625 z "
           style="opacity:0.43312103;fill:none;fill-opacity:0.31788085;fill-rule:evenodd;stroke:#4f4f4f;stroke-width:5.26184607;stroke-linecap:butt;stroke-linejoin:miter;stroke-miterlimit:4;stroke-opacity:1;display:inline;filter:url(#filter3478)" />
        <path
           style="opacity:0.75159236;fill:none;fill-opacity:0.31788085;fill-rule:evenodd;stroke:#ffffff;stroke-width:5.26184607;stroke-linecap:butt;stroke-linejoin:miter;stroke-miterlimit:4;stroke-opacity:1;display:inline;filter:url(#filter3478)"
           d="M 100.5625,636.65625 C 102.2922,648.03926 112.08774,656.71873 123.96875,656.71875 L 629.25,656.71875 C 639.98176,656.71875 649.01834,649.63222 651.9375,639.875 C 588.51516,643.55387 408.84177,650.54996 100.5625,636.65625 z "
           id="path3184"
           transform="matrix(0.9688996,0,0,-0.2164783,11.70152,308.82413)" />
        <path
           transform="matrix(-1.5262831e-3,-0.8450583,-0.221996,2.9003315e-4,243.24307,733.83254)"
           id="path4642"
           d="M 100.5625,636.65625 C 102.2922,648.03926 112.08774,656.71873 123.96875,656.71875 L 629.25,656.71875 C 639.98176,656.71875 649.01834,649.63222 651.9375,639.875 C 588.51516,643.55387 408.84177,650.54996 100.5625,636.65625 z "
           style="opacity:0.75159236;fill:none;fill-opacity:0.31788085;fill-rule:evenodd;stroke:#ffffff;stroke-width:5.26184607;stroke-linecap:butt;stroke-linejoin:miter;stroke-miterlimit:4;stroke-opacity:1;display:inline;filter:url(#filter3478)" />
      </g>
      <g
         style="opacity:0.94444442;display:inline"
         inkscape:label="logo"
         id="layer7">
        <path
           inkscape:export-ydpi="90"
           inkscape:export-xdpi="90"
           inkscape:export-filename="/home/bgray/software/sidux-art/svg-core/sidux-logo.png"
           sodipodi:nodetypes="ccccccssccccsccccccccsccccscccccccccccccccccccccccccccccscsccccccccscccccccccscccccccccccccccccccccccccccccccc"
           id="text2178"
           d="M 175.30637,447.48758 L 175.30637,466.51409 C 175.30637,467.72213 175.91039,468.32614 177.11842,468.32614 L 237.82205,468.32614 C 242.0501,468.32614 245.49299,467.29932 248.15073,465.24567 C 250.80833,463.0712 252.86199,460.53435 254.31169,457.63506 C 256.96928,452.56133 258.29812,447.18559 258.29821,441.50782 C 258.29812,434.98448 257.7545,429.60874 256.66736,425.38059 C 255.58005,421.15251 253.94921,417.83044 251.77483,415.41432 C 249.6003,412.87751 246.76142,411.06546 243.2582,409.97817 C 239.87564,408.891 235.76834,408.34738 230.93627,408.34733 L 206.47361,408.34733 C 201.03744,408.34738 198.31936,405.93132 198.31939,401.09913 C 198.31936,396.50868 201.03744,394.21342 206.47361,394.21335 L 252.49965,394.21335 C 253.70761,394.21342 254.31162,393.6094 254.31169,392.40129 L 254.31169,373.55599 C 254.31162,372.22725 253.70761,371.56284 252.49965,371.56274 L 212.45338,371.56274 C 206.05077,371.56284 200.61463,371.98565 196.14493,372.83117 C 187.08468,374.2809 181.22572,378.62982 178.56806,385.87792 C 177.11842,389.7437 176.3936,394.75703 176.39361,400.91793 C 176.3936,409.85743 178.20565,416.7432 181.82974,421.57528 C 183.64178,424.1122 186.05785,426.10545 189.07794,427.55505 C 192.21881,429.00472 196.02411,429.72954 200.49385,429.7295 L 228.21819,429.7295 C 233.29188,429.72954 235.82874,432.1456 235.8288,436.9777 C 235.82874,442.77628 233.29188,445.67556 228.21819,445.67553 L 177.11842,445.67553 C 175.91039,445.67556 175.30637,446.27956 175.30637,447.48758 M 269.97146,465.06445 C 269.97146,467.23891 270.57547,468.32614 271.78351,468.32614 L 290.81001,468.32614 C 292.01803,468.32614 292.62203,467.23891 292.62207,465.06445 L 292.62207,374.46201 C 292.62203,372.52926 292.01803,371.56284 290.81001,371.56274 L 271.78351,371.56274 C 270.57547,371.56284 269.97146,372.52926 269.97146,374.46201 L 269.97146,465.06445 M 371.84666,369.75068 L 371.84666,337.85863 C 371.84659,336.16751 372.51102,335.32189 373.83992,335.32176 L 392.68523,335.32176 C 393.89316,335.32189 394.49718,336.16751 394.49727,337.85863 L 394.49727,465.06445 C 394.49718,467.23891 393.89316,468.32614 392.68523,468.32614 L 339.22979,468.32614 C 325.45818,468.32614 315.12952,462.46719 308.24374,450.74927 C 303.17001,442.05146 300.87475,432.0248 301.35796,420.66926 C 302.08278,406.89775 304.31763,396.87109 308.06255,390.58925 C 315.43153,378.0258 325.45818,371.74404 338.14255,371.74394 L 370.03461,371.56274 C 371.24258,371.56284 371.84659,370.95882 371.84666,369.75068 M 371.84666,396.20659 C 371.84659,394.87784 371.24258,394.21342 370.03461,394.21335 L 349.92087,394.21335 C 340.13577,394.21342 334.03521,395.42145 331.61918,397.83744 C 329.20308,400.25358 327.33064,403.39446 326.00183,407.2601 C 324.67296,410.76345 324.00855,415.23317 324.00857,420.66926 C 324.00855,427.43428 325.51858,433.05162 328.53869,437.52131 C 332.16277,442.95749 339.29015,445.67556 349.92087,445.67553 L 370.03461,445.67553 C 371.24258,445.67556 371.84659,445.07154 371.84666,443.86348 L 371.84666,396.20659 M 462.70644,376.99889 L 462.70644,438.42733 C 462.70638,440.60183 460.89433,442.47427 457.27029,444.04469 C 453.88774,445.49434 449.78044,446.21916 444.94835,446.21914 C 439.87459,446.21916 435.70688,445.49434 432.44522,444.04469 C 428.70029,442.35346 426.82785,440.48102 426.82787,438.42733 L 426.82787,376.99889 C 426.82785,374.34131 426.22383,373.01247 425.01583,373.01237 L 406.53292,373.01237 C 405.32489,373.01247 404.72087,374.34131 404.72088,376.99889 L 404.72088,446.21914 C 404.72087,450.08487 405.9289,453.40695 408.34497,456.18541 C 412.93549,461.62157 420.24407,465.24567 430.27077,467.05771 C 434.98205,467.90333 439.87459,468.32614 444.94835,468.32614 C 449.78044,468.32614 454.55216,467.90333 459.26355,467.05771 C 469.41095,465.24567 476.77995,461.62157 481.37053,456.18541 C 483.66571,453.40695 484.81335,450.08487 484.81343,446.21914 L 484.81343,376.99889 C 484.81335,374.34131 484.20933,373.01247 483.00139,373.01237 L 464.51849,373.01237 C 463.31038,373.01247 462.70638,374.34131 462.70644,376.99889 M 583.64623,465.97048 L 555.92189,422.66251 C 554.10979,420.00489 554.17019,417.22641 556.1031,414.32708 L 582.19661,373.19358 C 582.92134,371.98565 582.74012,371.38162 581.65299,371.38153 L 556.46551,371.38153 C 554.89501,371.38162 553.74737,371.98565 553.02261,373.19358 L 542.69394,390.58925 C 540.64023,394.09262 538.52618,394.09262 536.35176,390.58925 L 525.84189,373.19358 C 525.11702,371.98565 524.0298,371.38162 522.58019,371.38153 L 497.21151,371.38153 C 496.12427,371.38162 495.94308,371.98565 496.66789,373.19358 L 522.94261,414.32708 C 524.87542,417.22641 524.93582,420.00489 523.1238,422.66251 L 495.03705,466.51409 C 494.31223,467.60133 494.37263,468.14494 495.21826,468.14494 L 518.95609,468.14494 C 520.4057,468.14494 521.43254,467.66173 522.03658,466.69529 L 536.53297,444.22589 C 538.46578,441.20584 540.39862,441.20584 542.33153,444.22589 L 557.00912,466.69529 C 557.61307,467.66173 558.5795,468.14494 559.9084,468.14494 L 583.46503,468.14494 C 584.55217,468.14494 584.61257,467.42011 583.64623,465.97048"
           style="font-size:156px;font-style:normal;font-weight:bold;fill:url(#linearGradient3584);fill-opacity:1;stroke:#ffffff;stroke-width:3.5;stroke-linecap:butt;stroke-linejoin:miter;stroke-miterlimit:4;stroke-dasharray:none;stroke-opacity:1;display:inline;font-family:Sidux" />
        <path
           transform="matrix(0.584492,0,0,0.584492,197.19669,214.81512)"
           sodipodi:open="true"
           sodipodi:end="10.998341"
           sodipodi:start="4.716747"
           d="M 147.97232,202.36243 A 26.428572,26.071428 0 1 1 147.93027,202.36228"
           sodipodi:ry="26.071428"
           sodipodi:rx="26.428572"
           sodipodi:cy="228.43361"
           sodipodi:cx="147.85715"
           id="path7625"
           style="opacity:0.54777066;fill:url(#linearGradient3586);fill-opacity:1;stroke:#adadad;stroke-width:3.90211344;stroke-miterlimit:4;stroke-dasharray:none;stroke-opacity:1"
           sodipodi:type="arc" />
        <g
           transform="matrix(1.0870933,0,0,1.0870933,-85.858213,-329.85454)"
           inkscape:label="Layer 1"
           id="g5893"
           style="opacity:0.23566883;stroke:none;stroke-opacity:1;display:inline">
          <g
             style="opacity:1;stroke:none;stroke-opacity:1;display:inline"
             id="g6720"
             transform="translate(-31.856578,391.84967)">
            <path
               style="fill:#bcb9b9;fill-opacity:1;stroke:none;stroke-opacity:1;filter:url(#filter6664)"
               d="M 366.67158,245.41067 C 361.23794,243.58903 358.0787,239.38194 357.62729,233.36661 C 356.87171,223.29797 363.07839,217.11264 373.17625,217.87116 C 377.68136,218.20956 379.0486,218.82171 382.08804,221.86115 C 385.13036,224.90346 385.73841,226.26358 386.07217,230.77294 C 386.50469,236.61662 384.46712,241.1658 380.15245,243.9896 C 377.0401,246.02653 370.54945,246.71073 366.67158,245.41067 z "
               id="path6722" />
            <path
               style="opacity:0.61783441;fill:#c0c0c0;fill-opacity:1;stroke:none;stroke-opacity:1"
               d="M 364.38473,244.31517 C 360.53126,242.36529 357.35418,236.88562 357.35845,232.1966 C 357.37172,217.629 376.74597,212.34715 384.36011,224.83534 C 387.90231,230.645 386.29497,239.13651 380.84103,243.42658 C 377.65163,245.93536 368.55714,246.42644 364.38473,244.31517 z "
               id="path6724" />
            <path
               style="opacity:0.7579618;fill:#a0a0a0;fill-opacity:1;stroke:none;stroke-opacity:1;filter:url(#filter6712)"
               d="M 364.6244,244.11189 C 358.35217,241.38518 355.73231,233.4132 358.74157,226.21102 C 360.34839,222.36535 365.48252,218.32256 367.68579,219.16803 C 368.51774,219.48728 370.15563,219.23621 371.32554,218.61009 C 376.71153,215.7276 386.35471,223.86609 386.35471,231.29418 C 386.35471,235.48939 383.96592,240.37914 380.48534,243.30852 C 377.36023,245.93873 369.71717,246.32586 364.6244,244.11189 z "
               id="path6726" />
            <path
               style="fill:#e6e6e6;fill-opacity:1;stroke:none;stroke-opacity:1"
               d="M 364.68019,244.13535 C 358.86895,241.60759 356.04312,234.09866 358.31382,227.21836 C 359.60956,223.29225 363.957,219.22789 366.01577,220.01791 C 366.72908,220.29164 368.71016,219.92801 370.41815,219.20985 C 374.73629,217.39421 377.94677,218.27357 381.91413,222.35863 C 387.81223,228.43171 387.74422,234.94382 381.71297,241.61969 C 378.40017,245.28656 377.7243,245.59145 372.98835,245.55534 C 370.16485,245.53381 366.42617,244.89481 364.68019,244.13535 z M 382.74842,232.53381 C 383.51037,227.76885 383.19163,227.07863 379.29993,225.06615 C 374.31984,222.49085 368.42126,225.51817 371.81217,228.90908 C 372.56703,229.66394 373.11041,231.07968 373.01968,232.05518 C 372.90214,233.31888 373.68774,233.92377 375.75222,234.15914 C 377.34585,234.34084 379.12335,234.96312 379.70222,235.54199 C 381.48702,237.32679 382.07481,236.74632 382.74842,232.53381 z "
               id="path6728" />
            <path
               style="fill:#575757;fill-opacity:1;stroke:none;stroke-opacity:1"
               d="M 364.54707,243.91889 C 361.02074,242.18107 357.33951,236.2593 357.37667,232.38432 C 357.432,226.61546 363.50728,218.33467 366.38121,220.11086 C 366.92305,220.44573 368.87081,220.17571 370.70957,219.5108 C 375.13956,217.9089 378.90913,218.9832 382.44601,222.85559 C 387.84162,228.76302 387.06674,237.0061 380.58046,242.70113 C 377.92928,245.0289 376.36341,245.59003 372.56991,245.57171 C 369.97655,245.55919 366.36627,244.81542 364.54707,243.91889 z M 376.60471,237.88875 C 375.36721,237.65039 373.34221,237.65039 372.10471,237.88875 C 370.86721,238.1271 371.87971,238.32212 374.35471,238.32212 C 376.82971,238.32212 377.84221,238.1271 376.60471,237.88875 z M 382.96393,233.34448 C 383.88661,229.44055 383.61738,227.59113 381.83571,225.59448 C 381.09955,224.76948 380.44471,223.64448 380.38052,223.09448 C 380.31633,222.54448 379.27177,222.24614 378.05926,222.43149 C 374.00263,223.05163 370.94554,225.07193 370.24668,227.59448 C 369.70045,229.56612 369.533,229.67761 369.45439,228.12197 C 369.35999,226.25403 369.27212,226.26738 367.79678,228.37373 C 366.93991,229.59707 366.54616,231.09524 366.92178,231.703 C 367.40788,232.48953 367.82288,232.455 368.36168,231.58321 C 368.91792,230.68318 369.68027,230.92004 371.23668,232.47645 C 372.43382,233.67359 374.63341,234.59448 376.29569,234.59448 C 377.91323,234.59448 379.51479,235.04448 379.85471,235.59448 C 381.00874,237.46175 382.19345,236.60443 382.96393,233.34448 z "
               id="path6730"
               sodipodi:nodetypes="cssssssccssccsssssssssssc" />
            <path
               style="opacity:0.77707005;fill:#323232;fill-opacity:1;stroke:none;stroke-opacity:1"
               d="M 367.35471,244.94241 C 360.89845,242.8154 356.64205,236.20681 357.78938,230.09104 C 358.70955,225.18611 362.75404,220.71117 366.17898,220.80855 C 367.69729,220.85172 369.90337,220.37121 371.08139,219.74076 C 373.65744,218.3621 376.33069,218.29371 378.32575,219.55542 C 380.04473,220.64254 379.7218,221.07895 376.45344,222.08565 C 374.47312,222.69562 374.16403,222.53377 374.69028,221.1624 C 375.274,219.64123 375.14009,219.6314 373.11904,221.047 C 371.9039,221.89811 370.1202,222.59448 369.15526,222.59448 C 368.19031,222.59448 366.66369,223.71948 365.76275,225.09448 C 364.86182,226.46948 363.528,227.59448 362.79872,227.59448 C 360.92461,227.59448 359.93066,229.57043 361.17756,230.81733 C 361.909,231.54877 362.73526,231.35679 363.90947,230.18258 C 365.97569,228.11636 366.87525,228.75333 365.50551,231.31272 C 364.00348,234.11928 365.59066,236.04197 367.37074,233.57224 C 368.79514,231.59599 371.01715,230.71362 369.86179,232.58303 C 369.51145,233.14989 369.91285,233.31753 370.80277,232.97604 C 371.65634,232.64849 372.35471,232.87865 372.35471,233.48749 C 372.35471,234.09634 373.60458,234.59448 375.1322,234.59448 C 376.65983,234.59448 378.84463,235.24933 379.98733,236.04971 C 381.95036,237.42467 382.12723,237.2971 383.1938,233.7372 C 383.95483,231.19714 384.01253,228.84941 383.3709,226.53197 C 382.50554,223.40645 382.55122,223.26907 383.87422,225.01821 C 387.78089,230.18325 386.38763,236.49537 379.9564,242.76775 C 377.68502,244.98303 376.17085,245.5774 372.9564,245.51553 C 370.70047,245.47211 368.17971,245.21421 367.35471,244.94241 z M 377.44846,239.54431 C 380.32178,238.00655 378.81256,236.59448 374.29569,236.59448 C 369.89699,236.59448 369.20385,237.73381 372.60471,239.37399 C 375.50086,240.77075 375.17805,240.7594 377.44846,239.54431 z M 366.56117,226.09448 C 366.76244,224.81241 367.76888,223.99506 369.36493,223.81753 C 371.71849,223.55573 371.74529,223.60577 369.85471,224.73207 C 368.75471,225.38738 367.49302,226.41201 367.05095,227.00902 C 366.57333,227.65404 366.37459,227.28296 366.56117,226.09448 z "
               id="path6732" />
            <path
               style="opacity:0.72611461;fill:#7e7e7e;fill-opacity:1;stroke:none;stroke-opacity:1"
               d="M 365.42579,243.84293 C 361.61116,241.8978 358.84942,238.43155 357.96885,234.48374 C 357.44377,232.12971 357.64936,231.90185 360.05959,232.16643 C 361.61693,232.33738 363.21032,231.80663 363.87702,230.89486 C 364.82624,229.59672 365.02138,229.86072 365.02138,232.44304 C 365.02138,237.06499 369.51478,240.91172 374.25419,240.3471 C 376.23447,240.11118 378.64221,239.57219 379.60471,239.14933 C 382.20383,238.00746 381.83553,240.79415 379.04026,243.42017 C 376.16518,246.12116 370.25369,246.30473 365.42579,243.84293 z M 366.93731,235.72813 C 366.64282,235.25163 367.23778,234.10529 368.25944,233.1807 C 369.93591,231.66352 370.26786,231.65049 371.66443,233.04705 C 372.51551,233.89814 374.2565,234.60137 375.53328,234.60979 C 376.81007,234.61821 378.52971,235.06132 379.35471,235.59448 C 380.40593,236.27383 378.85284,236.56844 374.16373,236.57917 C 370.48369,236.58759 367.2318,236.20462 366.93731,235.72813 z M 383.85471,231.16283 C 383.85471,225.44003 384.69974,224.97923 385.77818,230.11394 C 386.16332,231.94768 385.91017,233.82017 385.13353,234.88228 C 384.0378,236.38079 383.85471,235.84829 383.85471,231.16283 z M 359.07464,227.59448 C 359.66452,224.1516 363.07862,220.70952 365.32181,221.29613 C 366.32745,221.55911 368.06894,221.2826 369.19179,220.68167 C 370.37084,220.05066 371.46971,219.97153 371.79284,220.49436 C 372.10056,220.99228 371.03881,221.85756 369.43338,222.41721 C 367.82796,222.97686 365.57849,224.3707 364.43457,225.51462 C 363.29065,226.65854 361.71271,227.59448 360.92803,227.59448 C 360.14336,227.59448 359.30897,228.15698 359.07383,228.84448 C 358.8387,229.53198 358.83906,228.96948 359.07464,227.59448 z "
               id="path6734" />
            <path
               style="opacity:0.73248411;fill:#adadad;fill-opacity:1;stroke:none;stroke-opacity:1"
               d="M 368.99784,244.82608 C 368.73665,244.40345 370.23243,244.2207 372.32179,244.41995 C 374.41116,244.6192 376.42486,244.28999 376.79669,243.68835 C 377.16852,243.08672 377.95129,242.59448 378.53617,242.59448 C 379.20676,242.59448 379.13972,243.14859 378.35471,244.09448 C 377.06705,245.64602 369.85319,246.21006 368.99784,244.82608 z M 362.71503,242.13431 C 360.4343,240.53682 357.70583,234.91002 358.72011,233.89575 C 359.06914,233.54672 359.35471,233.8379 359.35471,234.54282 C 359.35471,235.50316 359.95829,235.42902 361.76215,234.24709 C 363.93314,232.8246 364.2281,232.82217 364.76539,234.22232 C 365.55229,236.27295 364.49724,237.86315 362.78558,237.20633 C 359.9482,236.11752 360.46372,238.53554 363.59512,241.00341 C 367.02447,243.70609 366.29582,244.64239 362.71503,242.13431 z M 371.10471,241.9322 C 371.79221,241.65479 372.91721,241.65479 373.60471,241.9322 C 374.29221,242.20961 373.72971,242.43659 372.35471,242.43659 C 370.97971,242.43659 370.41721,242.20961 371.10471,241.9322 z M 367.829,235.73544 C 366.79597,234.70241 367.43502,233.41132 368.73286,233.90935 C 369.49084,234.20021 370.61584,233.93336 371.23286,233.31634 C 372.062,232.4872 372.35471,232.61362 372.35471,233.80086 C 372.35471,234.89216 372.96987,235.24637 374.27319,234.90555 C 375.32835,234.62962 377.01585,234.87232 378.02319,235.4449 C 379.43768,236.2489 378.53961,236.45449 374.079,236.34783 C 370.90236,236.27188 368.08986,235.9963 367.829,235.73544 z M 384.35471,232.59448 C 384.35471,232.04448 384.83127,231.59448 385.41373,231.59448 C 385.99619,231.59448 386.19463,232.04448 385.85471,232.59448 C 385.51479,233.14448 385.03823,233.59448 384.79569,233.59448 C 384.55315,233.59448 384.35471,233.14448 384.35471,232.59448 z M 384.43366,228.01115 C 384.48164,226.8462 384.7186,226.60925 385.03782,227.40698 C 385.3267,228.12885 385.29117,228.99135 384.95888,229.32365 C 384.62659,229.65594 384.39024,229.06531 384.43366,228.01115 z M 360.35471,225.21692 C 360.35471,223.08532 362.9981,221.39284 365.54967,221.89077 L 367.85471,222.34058 L 365.67391,223.06607 C 364.3565,223.50433 363.70602,224.3464 364.0309,225.19302 C 364.38726,226.1217 363.85789,226.59448 362.4617,226.59448 C 361.30286,226.59448 360.35471,225.97458 360.35471,225.21692 z "
               id="path6736" />
          </g>
        </g>
        <g
           style="opacity:1;fill:url(#linearGradient3588);fill-opacity:1;stroke:none;stroke-opacity:1;display:inline"
           id="g7587"
           inkscape:label="Layer 1"
           transform="matrix(1.0870933,0,0,1.0870933,-94.251071,-391.17326)">
          <g
             transform="translate(-31.856578,391.84967)"
             id="g7589"
             style="opacity:1;fill:url(#linearGradient3590);fill-opacity:1;stroke:none;stroke-opacity:1;display:inline">
            <path
               id="path7591"
               d="M 366.67158,245.41067 C 361.23794,243.58903 358.0787,239.38194 357.62729,233.36661 C 356.87171,223.29797 363.07839,217.11264 373.17625,217.87116 C 377.68136,218.20956 379.0486,218.82171 382.08804,221.86115 C 385.13036,224.90346 385.73841,226.26358 386.07217,230.77294 C 386.50469,236.61662 384.46712,241.1658 380.15245,243.9896 C 377.0401,246.02653 370.54945,246.71073 366.67158,245.41067 z "
               style="fill:url(#linearGradient3592);fill-opacity:1;stroke:none;stroke-opacity:1;filter:url(#filter6664)" />
            <path
               id="path7593"
               d="M 364.38473,244.31517 C 360.53126,242.36529 357.35418,236.88562 357.35845,232.1966 C 357.37172,217.629 376.74597,212.34715 384.36011,224.83534 C 387.90231,230.645 386.29497,239.13651 380.84103,243.42658 C 377.65163,245.93536 368.55714,246.42644 364.38473,244.31517 z "
               style="opacity:0.61783441;fill:url(#linearGradient3594);fill-opacity:1;stroke:none;stroke-opacity:1" />
            <path
               id="path7595"
               d="M 364.6244,244.11189 C 358.35217,241.38518 355.73231,233.4132 358.74157,226.21102 C 360.34839,222.36535 365.48252,218.32256 367.68579,219.16803 C 368.51774,219.48728 370.15563,219.23621 371.32554,218.61009 C 376.71153,215.7276 386.35471,223.86609 386.35471,231.29418 C 386.35471,235.48939 383.96592,240.37914 380.48534,243.30852 C 377.36023,245.93873 369.71717,246.32586 364.6244,244.11189 z "
               style="opacity:0.7579618;fill:url(#linearGradient3596);fill-opacity:1;stroke:none;stroke-opacity:1;filter:url(#filter6712)" />
            <path
               id="path7597"
               d="M 364.68019,244.13535 C 358.86895,241.60759 356.04312,234.09866 358.31382,227.21836 C 359.60956,223.29225 363.957,219.22789 366.01577,220.01791 C 366.72908,220.29164 368.71016,219.92801 370.41815,219.20985 C 374.73629,217.39421 377.94677,218.27357 381.91413,222.35863 C 387.81223,228.43171 387.74422,234.94382 381.71297,241.61969 C 378.40017,245.28656 377.7243,245.59145 372.98835,245.55534 C 370.16485,245.53381 366.42617,244.89481 364.68019,244.13535 z M 382.74842,232.53381 C 383.51037,227.76885 383.19163,227.07863 379.29993,225.06615 C 374.31984,222.49085 368.42126,225.51817 371.81217,228.90908 C 372.56703,229.66394 373.11041,231.07968 373.01968,232.05518 C 372.90214,233.31888 373.68774,233.92377 375.75222,234.15914 C 377.34585,234.34084 379.12335,234.96312 379.70222,235.54199 C 381.48702,237.32679 382.07481,236.74632 382.74842,232.53381 z "
               style="fill:url(#linearGradient3598);fill-opacity:1;stroke:none;stroke-opacity:1" />
            <path
               sodipodi:nodetypes="cssssssccssccsssssssssssc"
               id="path7599"
               d="M 364.54707,243.91889 C 361.02074,242.18107 357.33951,236.2593 357.37667,232.38432 C 357.432,226.61546 363.50728,218.33467 366.38121,220.11086 C 366.92305,220.44573 368.87081,220.17571 370.70957,219.5108 C 375.13956,217.9089 378.90913,218.9832 382.44601,222.85559 C 387.84162,228.76302 387.06674,237.0061 380.58046,242.70113 C 377.92928,245.0289 376.36341,245.59003 372.56991,245.57171 C 369.97655,245.55919 366.36627,244.81542 364.54707,243.91889 z M 376.60471,237.88875 C 375.36721,237.65039 373.34221,237.65039 372.10471,237.88875 C 370.86721,238.1271 371.87971,238.32212 374.35471,238.32212 C 376.82971,238.32212 377.84221,238.1271 376.60471,237.88875 z M 382.96393,233.34448 C 383.88661,229.44055 383.61738,227.59113 381.83571,225.59448 C 381.09955,224.76948 380.44471,223.64448 380.38052,223.09448 C 380.31633,222.54448 379.27177,222.24614 378.05926,222.43149 C 374.00263,223.05163 370.94554,225.07193 370.24668,227.59448 C 369.70045,229.56612 369.533,229.67761 369.45439,228.12197 C 369.35999,226.25403 369.27212,226.26738 367.79678,228.37373 C 366.93991,229.59707 366.54616,231.09524 366.92178,231.703 C 367.40788,232.48953 367.82288,232.455 368.36168,231.58321 C 368.91792,230.68318 369.68027,230.92004 371.23668,232.47645 C 372.43382,233.67359 374.63341,234.59448 376.29569,234.59448 C 377.91323,234.59448 379.51479,235.04448 379.85471,235.59448 C 381.00874,237.46175 382.19345,236.60443 382.96393,233.34448 z "
               style="fill:url(#linearGradient3600);fill-opacity:1;stroke:none;stroke-opacity:1" />
            <path
               id="path7601"
               d="M 367.35471,244.94241 C 360.89845,242.8154 356.64205,236.20681 357.78938,230.09104 C 358.70955,225.18611 362.75404,220.71117 366.17898,220.80855 C 367.69729,220.85172 369.90337,220.37121 371.08139,219.74076 C 373.65744,218.3621 376.33069,218.29371 378.32575,219.55542 C 380.04473,220.64254 379.7218,221.07895 376.45344,222.08565 C 374.47312,222.69562 374.16403,222.53377 374.69028,221.1624 C 375.274,219.64123 375.14009,219.6314 373.11904,221.047 C 371.9039,221.89811 370.1202,222.59448 369.15526,222.59448 C 368.19031,222.59448 366.66369,223.71948 365.76275,225.09448 C 364.86182,226.46948 363.528,227.59448 362.79872,227.59448 C 360.92461,227.59448 359.93066,229.57043 361.17756,230.81733 C 361.909,231.54877 362.73526,231.35679 363.90947,230.18258 C 365.97569,228.11636 366.87525,228.75333 365.50551,231.31272 C 364.00348,234.11928 365.59066,236.04197 367.37074,233.57224 C 368.79514,231.59599 371.01715,230.71362 369.86179,232.58303 C 369.51145,233.14989 369.91285,233.31753 370.80277,232.97604 C 371.65634,232.64849 372.35471,232.87865 372.35471,233.48749 C 372.35471,234.09634 373.60458,234.59448 375.1322,234.59448 C 376.65983,234.59448 378.84463,235.24933 379.98733,236.04971 C 381.95036,237.42467 382.12723,237.2971 383.1938,233.7372 C 383.95483,231.19714 384.01253,228.84941 383.3709,226.53197 C 382.50554,223.40645 382.55122,223.26907 383.87422,225.01821 C 387.78089,230.18325 386.38763,236.49537 379.9564,242.76775 C 377.68502,244.98303 376.17085,245.5774 372.9564,245.51553 C 370.70047,245.47211 368.17971,245.21421 367.35471,244.94241 z M 377.44846,239.54431 C 380.32178,238.00655 378.81256,236.59448 374.29569,236.59448 C 369.89699,236.59448 369.20385,237.73381 372.60471,239.37399 C 375.50086,240.77075 375.17805,240.7594 377.44846,239.54431 z M 366.56117,226.09448 C 366.76244,224.81241 367.76888,223.99506 369.36493,223.81753 C 371.71849,223.55573 371.74529,223.60577 369.85471,224.73207 C 368.75471,225.38738 367.49302,226.41201 367.05095,227.00902 C 366.57333,227.65404 366.37459,227.28296 366.56117,226.09448 z "
               style="opacity:0.77707005;fill:url(#linearGradient3602);fill-opacity:1;stroke:none;stroke-opacity:1" />
            <path
               id="path7603"
               d="M 365.42579,243.84293 C 361.61116,241.8978 358.84942,238.43155 357.96885,234.48374 C 357.44377,232.12971 357.64936,231.90185 360.05959,232.16643 C 361.61693,232.33738 363.21032,231.80663 363.87702,230.89486 C 364.82624,229.59672 365.02138,229.86072 365.02138,232.44304 C 365.02138,237.06499 369.51478,240.91172 374.25419,240.3471 C 376.23447,240.11118 378.64221,239.57219 379.60471,239.14933 C 382.20383,238.00746 381.83553,240.79415 379.04026,243.42017 C 376.16518,246.12116 370.25369,246.30473 365.42579,243.84293 z M 366.93731,235.72813 C 366.64282,235.25163 367.23778,234.10529 368.25944,233.1807 C 369.93591,231.66352 370.26786,231.65049 371.66443,233.04705 C 372.51551,233.89814 374.2565,234.60137 375.53328,234.60979 C 376.81007,234.61821 378.52971,235.06132 379.35471,235.59448 C 380.40593,236.27383 378.85284,236.56844 374.16373,236.57917 C 370.48369,236.58759 367.2318,236.20462 366.93731,235.72813 z M 383.85471,231.16283 C 383.85471,225.44003 384.69974,224.97923 385.77818,230.11394 C 386.16332,231.94768 385.91017,233.82017 385.13353,234.88228 C 384.0378,236.38079 383.85471,235.84829 383.85471,231.16283 z M 359.07464,227.59448 C 359.66452,224.1516 363.07862,220.70952 365.32181,221.29613 C 366.32745,221.55911 368.06894,221.2826 369.19179,220.68167 C 370.37084,220.05066 371.46971,219.97153 371.79284,220.49436 C 372.10056,220.99228 371.03881,221.85756 369.43338,222.41721 C 367.82796,222.97686 365.57849,224.3707 364.43457,225.51462 C 363.29065,226.65854 361.71271,227.59448 360.92803,227.59448 C 360.14336,227.59448 359.30897,228.15698 359.07383,228.84448 C 358.8387,229.53198 358.83906,228.96948 359.07464,227.59448 z "
               style="opacity:0.72611461;fill:url(#linearGradient3604);fill-opacity:1;stroke:none;stroke-opacity:1" />
            <path
               id="path7605"
               d="M 368.99784,244.82608 C 368.73665,244.40345 370.23243,244.2207 372.32179,244.41995 C 374.41116,244.6192 376.42486,244.28999 376.79669,243.68835 C 377.16852,243.08672 377.95129,242.59448 378.53617,242.59448 C 379.20676,242.59448 379.13972,243.14859 378.35471,244.09448 C 377.06705,245.64602 369.85319,246.21006 368.99784,244.82608 z M 362.71503,242.13431 C 360.4343,240.53682 357.70583,234.91002 358.72011,233.89575 C 359.06914,233.54672 359.35471,233.8379 359.35471,234.54282 C 359.35471,235.50316 359.95829,235.42902 361.76215,234.24709 C 363.93314,232.8246 364.2281,232.82217 364.76539,234.22232 C 365.55229,236.27295 364.49724,237.86315 362.78558,237.20633 C 359.9482,236.11752 360.46372,238.53554 363.59512,241.00341 C 367.02447,243.70609 366.29582,244.64239 362.71503,242.13431 z M 371.10471,241.9322 C 371.79221,241.65479 372.91721,241.65479 373.60471,241.9322 C 374.29221,242.20961 373.72971,242.43659 372.35471,242.43659 C 370.97971,242.43659 370.41721,242.20961 371.10471,241.9322 z M 367.829,235.73544 C 366.79597,234.70241 367.43502,233.41132 368.73286,233.90935 C 369.49084,234.20021 370.61584,233.93336 371.23286,233.31634 C 372.062,232.4872 372.35471,232.61362 372.35471,233.80086 C 372.35471,234.89216 372.96987,235.24637 374.27319,234.90555 C 375.32835,234.62962 377.01585,234.87232 378.02319,235.4449 C 379.43768,236.2489 378.53961,236.45449 374.079,236.34783 C 370.90236,236.27188 368.08986,235.9963 367.829,235.73544 z M 384.35471,232.59448 C 384.35471,232.04448 384.83127,231.59448 385.41373,231.59448 C 385.99619,231.59448 386.19463,232.04448 385.85471,232.59448 C 385.51479,233.14448 385.03823,233.59448 384.79569,233.59448 C 384.55315,233.59448 384.35471,233.14448 384.35471,232.59448 z M 384.43366,228.01115 C 384.48164,226.8462 384.7186,226.60925 385.03782,227.40698 C 385.3267,228.12885 385.29117,228.99135 384.95888,229.32365 C 384.62659,229.65594 384.39024,229.06531 384.43366,228.01115 z M 360.35471,225.21692 C 360.35471,223.08532 362.9981,221.39284 365.54967,221.89077 L 367.85471,222.34058 L 365.67391,223.06607 C 364.3565,223.50433 363.70602,224.3464 364.0309,225.19302 C 364.38726,226.1217 363.85789,226.59448 362.4617,226.59448 C 361.30286,226.59448 360.35471,225.97458 360.35471,225.21692 z "
               style="opacity:0.73248411;fill:url(#linearGradient3606);fill-opacity:1;stroke:none;stroke-opacity:1" />
          </g>
        </g>
        <path
           inkscape:export-ydpi="90"
           inkscape:export-xdpi="90"
           inkscape:export-filename="/home/bgray/software/sidux-art/svg-core/sidux-logo.png"
           sodipodi:open="true"
           sodipodi:end="6.909978"
           sodipodi:start="4.7201283"
           transform="matrix(0.8218159,-0.5737139,0.628307,0.1142836,-74.042766,450.48496)"
           d="M 171.46628,194.7439 A 96.974648,40.911179 0 0 1 249.25679,259.65031"
           sodipodi:ry="40.911179"
           sodipodi:rx="96.974648"
           sodipodi:cy="235.65385"
           sodipodi:cx="170.71577"
           id="path3533"
           style="opacity:1;fill:none;fill-opacity:1;stroke:#ffffff;stroke-width:3.9000001;stroke-miterlimit:4;stroke-dasharray:none;stroke-opacity:1;display:inline"
           sodipodi:type="arc" />
        <path
           sodipodi:open="true"
           sodipodi:type="arc"
           style="opacity:1;fill:none;fill-opacity:1;stroke:#ffffff;stroke-width:3.9000001;stroke-miterlimit:4;stroke-dasharray:none;stroke-opacity:1;display:inline"
           id="path7585"
           sodipodi:cx="170.71577"
           sodipodi:cy="235.65385"
           sodipodi:rx="96.974648"
           sodipodi:ry="40.911179"
           d="M 212.4095,272.59073 A 96.974648,40.911179 0 1 1 162.96536,194.87355"
           transform="matrix(0.8218159,-0.5737139,0.628307,0.1142836,-74.042766,450.48496)"
           sodipodi:start="1.1263649"
           sodipodi:end="4.6323816"
           inkscape:export-filename="/home/bgray/software/sidux-art/svg-core/sidux-logo.png"
           inkscape:export-xdpi="90"
           inkscape:export-ydpi="90" />
      </g>
      <g
         style="opacity:0.40740739;display:inline"
         inkscape:label="sheen"
         id="layer6">
        <path
           sodipodi:nodetypes="ccccccc"
           id="rect3359"
           d="M 120.10685,166.54024 C 106.72034,166.54024 95.947917,174.68153 95.947917,184.79842 L 96.953107,462.46913 C 62.776287,408.25762 694.06164,401.05106 660.00416,460.78588 L 660.24703,184.79842 C 660.24703,174.68153 649.47461,166.54024 636.0881,166.54024 L 120.10685,166.54024 z "
           style="fill:#ffffff;fill-opacity:0.78918918;fill-rule:evenodd;stroke:none;stroke-width:1.20000005;stroke-linecap:butt;stroke-linejoin:miter;stroke-miterlimit:4;stroke-opacity:1;display:inline" />
      </g>
    </g>
    <g
       id="g3864"
       style="opacity:1"
       transform="translate(1.1785113,-1.1785113)">
      <path
         inkscape:export-ydpi="90"
         inkscape:export-xdpi="90"
         inkscape:export-filename="/home/bgray/software/sidux-art/svg-core/sidux-logo.png"
         transform="matrix(0.8823588,0,0,0.8823588,655.96845,198.23802)"
         id="path3280"
         d="M 60.755894,368.54772 C 70.063305,369.32572 76.985719,377.51099 76.207713,386.8184 C 75.429707,396.12581 67.244441,403.04822 57.93703,402.27022 C 48.62962,401.49221 41.707205,393.30694 42.485212,383.99953 C 43.142282,376.1389 48.851537,369.96986 56.637857,368.70712"
         style="opacity:1;fill:#ffffff;fill-opacity:1;stroke:none;stroke-opacity:1;display:inline;filter:url(#filter6192)" />
      <g
         transform="translate(336.41999,306.45646)"
         id="g3846"
         style="opacity:0.75925927;display:inline">
        <path
           id="path3848"
           d="M 366.67158,245.41067 C 361.23794,243.58903 358.0787,239.38194 357.62729,233.36661 C 356.87171,223.29797 363.07839,217.11264 373.17625,217.87116 C 377.68136,218.20956 379.0486,218.82171 382.08804,221.86115 C 385.13036,224.90346 385.73841,226.26358 386.07217,230.77294 C 386.50469,236.61662 384.46712,241.1658 380.15245,243.9896 C 377.0401,246.02653 370.54945,246.71073 366.67158,245.41067 z "
           style="fill:#bcb9b9;fill-opacity:1;filter:url(#filter6664)" />
        <path
           id="path3850"
           d="M 364.38473,244.31517 C 360.53126,242.36529 357.35418,236.88562 357.35845,232.1966 C 357.37172,217.629 376.74597,212.34715 384.36011,224.83534 C 387.90231,230.645 386.29497,239.13651 380.84103,243.42658 C 377.65163,245.93536 368.55714,246.42644 364.38473,244.31517 z "
           style="fill:#ffffff;fill-opacity:1" />
        <path
           id="path3852"
           d="M 364.6244,244.11189 C 358.35217,241.38518 355.73231,233.4132 358.74157,226.21102 C 360.34839,222.36535 365.48252,218.32256 367.68579,219.16803 C 368.51774,219.48728 370.15563,219.23621 371.32554,218.61009 C 376.71153,215.7276 386.35471,223.86609 386.35471,231.29418 C 386.35471,235.48939 383.96592,240.37914 380.48534,243.30852 C 377.36023,245.93873 369.71717,246.32586 364.6244,244.11189 z "
           style="fill:#ffffff;fill-opacity:1;filter:url(#filter6712)" />
        <path
           id="path3854"
           d="M 364.68019,244.13535 C 358.86895,241.60759 356.04312,234.09866 358.31382,227.21836 C 359.60956,223.29225 363.957,219.22789 366.01577,220.01791 C 366.72908,220.29164 368.71016,219.92801 370.41815,219.20985 C 374.73629,217.39421 377.94677,218.27357 381.91413,222.35863 C 387.81223,228.43171 387.74422,234.94382 381.71297,241.61969 C 378.40017,245.28656 377.7243,245.59145 372.98835,245.55534 C 370.16485,245.53381 366.42617,244.89481 364.68019,244.13535 z M 382.74842,232.53381 C 383.51037,227.76885 383.19163,227.07863 379.29993,225.06615 C 374.31984,222.49085 368.42126,225.51817 371.81217,228.90908 C 372.56703,229.66394 373.11041,231.07968 373.01968,232.05518 C 372.90214,233.31888 373.68774,233.92377 375.75222,234.15914 C 377.34585,234.34084 379.12335,234.96312 379.70222,235.54199 C 381.48702,237.32679 382.07481,236.74632 382.74842,232.53381 z "
           style="fill:#bcbcbc;fill-opacity:0.87027025" />
        <path
           sodipodi:nodetypes="cssssssccssccsssssssssssc"
           id="path3856"
           d="M 364.54707,243.91889 C 361.02074,242.18107 357.33951,236.2593 357.37667,232.38432 C 357.432,226.61546 363.50728,218.33467 366.38121,220.11086 C 366.92305,220.44573 368.87081,220.17571 370.70957,219.5108 C 375.13956,217.9089 378.90913,218.9832 382.44601,222.85559 C 387.84162,228.76302 387.06674,237.0061 380.58046,242.70113 C 377.92928,245.0289 376.36341,245.59003 372.56991,245.57171 C 369.97655,245.55919 366.36627,244.81542 364.54707,243.91889 z M 376.60471,237.88875 C 375.36721,237.65039 373.34221,237.65039 372.10471,237.88875 C 370.86721,238.1271 371.87971,238.32212 374.35471,238.32212 C 376.82971,238.32212 377.84221,238.1271 376.60471,237.88875 z M 382.96393,233.34448 C 383.88661,229.44055 383.61738,227.59113 381.83571,225.59448 C 381.09955,224.76948 380.44471,223.64448 380.38052,223.09448 C 380.31633,222.54448 379.27177,222.24614 378.05926,222.43149 C 374.00263,223.05163 370.94554,225.07193 370.24668,227.59448 C 369.70045,229.56612 369.533,229.67761 369.45439,228.12197 C 369.35999,226.25403 369.27212,226.26738 367.79678,228.37373 C 366.93991,229.59707 366.54616,231.09524 366.92178,231.703 C 367.40788,232.48953 367.82288,232.455 368.36168,231.58321 C 368.91792,230.68318 369.68027,230.92004 371.23668,232.47645 C 372.43382,233.67359 374.63341,234.59448 376.29569,234.59448 C 377.91323,234.59448 379.51479,235.04448 379.85471,235.59448 C 381.00874,237.46175 382.19345,236.60443 382.96393,233.34448 z "
           style="fill:#ffffff;fill-opacity:0.7837838" />
        <path
           id="path3858"
           d="M 367.35471,244.94241 C 360.89845,242.8154 356.64205,236.20681 357.78938,230.09104 C 358.70955,225.18611 362.75404,220.71117 366.17898,220.80855 C 367.69729,220.85172 369.90337,220.37121 371.08139,219.74076 C 373.65744,218.3621 376.33069,218.29371 378.32575,219.55542 C 380.04473,220.64254 379.7218,221.07895 376.45344,222.08565 C 374.47312,222.69562 374.16403,222.53377 374.69028,221.1624 C 375.274,219.64123 375.14009,219.6314 373.11904,221.047 C 371.9039,221.89811 370.1202,222.59448 369.15526,222.59448 C 368.19031,222.59448 366.66369,223.71948 365.76275,225.09448 C 364.86182,226.46948 363.528,227.59448 362.79872,227.59448 C 360.92461,227.59448 359.93066,229.57043 361.17756,230.81733 C 361.909,231.54877 362.73526,231.35679 363.90947,230.18258 C 365.97569,228.11636 366.87525,228.75333 365.50551,231.31272 C 364.00348,234.11928 365.59066,236.04197 367.37074,233.57224 C 368.79514,231.59599 371.01715,230.71362 369.86179,232.58303 C 369.51145,233.14989 369.91285,233.31753 370.80277,232.97604 C 371.65634,232.64849 372.35471,232.87865 372.35471,233.48749 C 372.35471,234.09634 373.60458,234.59448 375.1322,234.59448 C 376.65983,234.59448 378.84463,235.24933 379.98733,236.04971 C 381.95036,237.42467 382.12723,237.2971 383.1938,233.7372 C 383.95483,231.19714 384.01253,228.84941 383.3709,226.53197 C 382.50554,223.40645 382.55122,223.26907 383.87422,225.01821 C 387.78089,230.18325 386.38763,236.49537 379.9564,242.76775 C 377.68502,244.98303 376.17085,245.5774 372.9564,245.51553 C 370.70047,245.47211 368.17971,245.21421 367.35471,244.94241 z M 377.44846,239.54431 C 380.32178,238.00655 378.81256,236.59448 374.29569,236.59448 C 369.89699,236.59448 369.20385,237.73381 372.60471,239.37399 C 375.50086,240.77075 375.17805,240.7594 377.44846,239.54431 z M 366.56117,226.09448 C 366.76244,224.81241 367.76888,223.99506 369.36493,223.81753 C 371.71849,223.55573 371.74529,223.60577 369.85471,224.73207 C 368.75471,225.38738 367.49302,226.41201 367.05095,227.00902 C 366.57333,227.65404 366.37459,227.28296 366.56117,226.09448 z "
           style="fill:#cbc5c5;fill-opacity:1" />
        <path
           id="path3860"
           d="M 365.42579,243.84293 C 361.61116,241.8978 358.84942,238.43155 357.96885,234.48374 C 357.44377,232.12971 357.64936,231.90185 360.05959,232.16643 C 361.61693,232.33738 363.21032,231.80663 363.87702,230.89486 C 364.82624,229.59672 365.02138,229.86072 365.02138,232.44304 C 365.02138,237.06499 369.51478,240.91172 374.25419,240.3471 C 376.23447,240.11118 378.64221,239.57219 379.60471,239.14933 C 382.20383,238.00746 381.83553,240.79415 379.04026,243.42017 C 376.16518,246.12116 370.25369,246.30473 365.42579,243.84293 z M 366.93731,235.72813 C 366.64282,235.25163 367.23778,234.10529 368.25944,233.1807 C 369.93591,231.66352 370.26786,231.65049 371.66443,233.04705 C 372.51551,233.89814 374.2565,234.60137 375.53328,234.60979 C 376.81007,234.61821 378.52971,235.06132 379.35471,235.59448 C 380.40593,236.27383 378.85284,236.56844 374.16373,236.57917 C 370.48369,236.58759 367.2318,236.20462 366.93731,235.72813 z M 383.85471,231.16283 C 383.85471,225.44003 384.69974,224.97923 385.77818,230.11394 C 386.16332,231.94768 385.91017,233.82017 385.13353,234.88228 C 384.0378,236.38079 383.85471,235.84829 383.85471,231.16283 z M 359.07464,227.59448 C 359.66452,224.1516 363.07862,220.70952 365.32181,221.29613 C 366.32745,221.55911 368.06894,221.2826 369.19179,220.68167 C 370.37084,220.05066 371.46971,219.97153 371.79284,220.49436 C 372.10056,220.99228 371.03881,221.85756 369.43338,222.41721 C 367.82796,222.97686 365.57849,224.3707 364.43457,225.51462 C 363.29065,226.65854 361.71271,227.59448 360.92803,227.59448 C 360.14336,227.59448 359.30897,228.15698 359.07383,228.84448 C 358.8387,229.53198 358.83906,228.96948 359.07464,227.59448 z "
           style="fill:#ffffff;fill-opacity:0.62162158" />
        <path
           id="path3862"
           d="M 368.99784,244.82608 C 368.73665,244.40345 370.23243,244.2207 372.32179,244.41995 C 374.41116,244.6192 376.42486,244.28999 376.79669,243.68835 C 377.16852,243.08672 377.95129,242.59448 378.53617,242.59448 C 379.20676,242.59448 379.13972,243.14859 378.35471,244.09448 C 377.06705,245.64602 369.85319,246.21006 368.99784,244.82608 z M 362.71503,242.13431 C 360.4343,240.53682 357.70583,234.91002 358.72011,233.89575 C 359.06914,233.54672 359.35471,233.8379 359.35471,234.54282 C 359.35471,235.50316 359.95829,235.42902 361.76215,234.24709 C 363.93314,232.8246 364.2281,232.82217 364.76539,234.22232 C 365.55229,236.27295 364.49724,237.86315 362.78558,237.20633 C 359.9482,236.11752 360.46372,238.53554 363.59512,241.00341 C 367.02447,243.70609 366.29582,244.64239 362.71503,242.13431 z M 371.10471,241.9322 C 371.79221,241.65479 372.91721,241.65479 373.60471,241.9322 C 374.29221,242.20961 373.72971,242.43659 372.35471,242.43659 C 370.97971,242.43659 370.41721,242.20961 371.10471,241.9322 z M 367.829,235.73544 C 366.79597,234.70241 367.43502,233.41132 368.73286,233.90935 C 369.49084,234.20021 370.61584,233.93336 371.23286,233.31634 C 372.062,232.4872 372.35471,232.61362 372.35471,233.80086 C 372.35471,234.89216 372.96987,235.24637 374.27319,234.90555 C 375.32835,234.62962 377.01585,234.87232 378.02319,235.4449 C 379.43768,236.2489 378.53961,236.45449 374.079,236.34783 C 370.90236,236.27188 368.08986,235.9963 367.829,235.73544 z M 384.35471,232.59448 C 384.35471,232.04448 384.83127,231.59448 385.41373,231.59448 C 385.99619,231.59448 386.19463,232.04448 385.85471,232.59448 C 385.51479,233.14448 385.03823,233.59448 384.79569,233.59448 C 384.55315,233.59448 384.35471,233.14448 384.35471,232.59448 z M 384.43366,228.01115 C 384.48164,226.8462 384.7186,226.60925 385.03782,227.40698 C 385.3267,228.12885 385.29117,228.99135 384.95888,229.32365 C 384.62659,229.65594 384.39024,229.06531 384.43366,228.01115 z M 360.35471,225.21692 C 360.35471,223.08532 362.9981,221.39284 365.54967,221.89077 L 367.85471,222.34058 L 365.67391,223.06607 C 364.3565,223.50433 363.70602,224.3464 364.0309,225.19302 C 364.38726,226.1217 363.85789,226.59448 362.4617,226.59448 C 361.30286,226.59448 360.35471,225.97458 360.35471,225.21692 z "
           style="fill:#ffffff;fill-opacity:1" />
      </g>
    </g>
  </g>
</svg>
